<svg xmlns="http://www.w3.org/2000/svg" viewBox="0 0 170 129" fill="none" stroke="currentColor" stroke-width="4" stroke-linecap="round" stroke-linejoin="round">
  <g transform="rotate(180 85 66.5)">
    <rect x="64" y="58" width="20" height="46" fill="currentColor" fill-opacity="0.12" stroke="none"/>
    <rect x="46" y="54" width="18" height="50" rx="4"/>
    <path d="M64 58 C72 55 78 49 81 42 C83 33 88 28 93 29 C99 30 101 36 99 42 C98 47 95 52 92 58"/>
    <path d="M86 58 H114 C119 58 119 68 114 68 H86"/>
    <path d="M86 70 H112 C117 70 117 80 112 80 H86"/>
    <path d="M86 82 H110 C115 82 115 92 110 92 H86"/>
    <path d="M86 94 H106 C111 94 111 104 106 104 H86"/>
    <path d="M86 104 C76 106 68 103 64 98"/>
  </g>
</svg>
