<svg xmlns="http://www.w3.org/2000/svg" viewBox="0 0 170 129" fill="none" stroke="currentColor" stroke-width="4" stroke-linecap="round" stroke-linejoin="round">
  <g transform="rotate(180 85 66.5)">
    <rect x="62" y="58" width="26" height="46" fill="currentColor" fill-opacity="0.12" stroke="none"/>
    <rect x="44" y="56" width="18" height="48" rx="4"/>
    <path d="M62 58 C70 55 78 48 82 38 C84 31 92 29 96 33 C99 37 98 42 95 48 L91 58"/>
    <path d="M62 58 H88"/>
    <path d="M62 104 H88"/>
    <rect x="88" y="58" width="34" height="10" rx="5"/>
    <rect x="88" y="70" width="32" height="10" rx="5"/>
    <rect x="88" y="82" width="30" height="10" rx="5"/>
    <rect x="88" y="94" width="26" height="10" rx="5"/>
  </g>
</svg>
