<svg xmlns="http://www.w3.org/2000/svg" viewBox="0 0 170 129" fill="none" stroke="currentColor" stroke-width="4" stroke-linecap="round" stroke-linejoin="round">
  <path d="M30 58 L72 28 L114 58 Z" fill="currentColor" fill-opacity="0.12" stroke="none"/>
  <path d="M30 58 L72 28 L114 58"/>
  <path d="M38 62 V110"/>
  <path d="M106 62 V72"/>
  <rect x="50" y="66" width="28" height="26" rx="2"/>
  <path d="M64 66 V92"/>
  <path d="M50 79 H78"/>
  <path d="M88 86 L118 64 L148 86 Z" fill="currentColor" fill-opacity="0.12" stroke="none"/>
  <path d="M88 86 L118 64 L148 86"/>
  <path d="M94 90 V110"/>
  <path d="M142 90 V110"/>
  <path d="M111 110 V92 Q111 90 113 90 H123 Q125 90 125 92 V110"/>
  <circle cx="28" cy="103" r="7"/>
  <path d="M22 110 H148"/>
</svg>
