<svg xmlns="http://www.w3.org/2000/svg" viewBox="0 0 170 129" fill="none" stroke="currentColor" stroke-width="4" stroke-linecap="round" stroke-linejoin="round">
  <path d="M28 78 L66 60 L66 78 Z" fill="currentColor" fill-opacity="0.12" stroke="none"/>
  <path d="M66 110 V56 H138 V110"/>
  <path d="M78 56 V30 H90 V56"/>
  <path d="M78 36 H90"/>
  <path d="M102 56 V40 H114 V56"/>
  <path d="M102 46 H114"/>
  <rect x="76" y="66" width="12" height="10" rx="1.5" fill="currentColor" fill-opacity="0.15" stroke="none"/>
  <rect x="96" y="66" width="12" height="10" rx="1.5" fill="currentColor" fill-opacity="0.15" stroke="none"/>
  <rect x="116" y="66" width="12" height="10" rx="1.5" fill="currentColor" fill-opacity="0.15" stroke="none"/>
  <rect x="76" y="84" width="12" height="10" rx="1.5" fill="currentColor" fill-opacity="0.15" stroke="none"/>
  <rect x="96" y="84" width="12" height="10" rx="1.5" fill="currentColor" fill-opacity="0.15" stroke="none"/>
  <rect x="116" y="84" width="12" height="10" rx="1.5" fill="currentColor" fill-opacity="0.15" stroke="none"/>
  <path d="M32 110 V78"/>
  <path d="M28 78 L66 60"/>
  <path d="M44 110 V92 Q44 90 46 90 H54 Q56 90 56 92 V110"/>
  <path d="M24 110 H146"/>
</svg>
