<svg xmlns="http://www.w3.org/2000/svg" viewBox="0 0 170 129" fill="none" stroke="currentColor" stroke-width="4" stroke-linecap="round" stroke-linejoin="round">
  <path d="M85 34 C78 44 72 50 72 57 A13 13 0 0 0 98 57 C98 50 92 44 85 34 Z" fill="currentColor" fill-opacity="0.12" stroke="none"/>
  <rect x="56" y="28" width="58" height="74" rx="3"/>
  <path d="M85 34 C78 44 72 50 72 57 A13 13 0 0 0 98 57 C98 50 92 44 85 34 Z"/>
  <path d="M56 74 H114"/>
  <circle cx="72" cy="88" r="6"/>
  <path d="M72 82 V85"/>
  <circle cx="98" cy="88" r="6"/>
  <path d="M98 82 V85"/>
  <path d="M62 102 V110"/>
  <path d="M108 102 V110"/>
  <path d="M28 110 H142"/>
</svg>
