<svg xmlns="http://www.w3.org/2000/svg" viewBox="0 0 170 129" fill="none" stroke="currentColor" stroke-width="4" stroke-linecap="round" stroke-linejoin="round">
  <path d="M27 96 Q27 76 45 76 Q63 76 63 96" fill="currentColor" fill-opacity="0.12" stroke="none"/>
  <path d="M67 96 Q67 76 85 76 Q103 76 103 96" fill="currentColor" fill-opacity="0.12" stroke="none"/>
  <path d="M107 96 Q107 76 125 76 Q143 76 143 96" fill="currentColor" fill-opacity="0.12" stroke="none"/>
  <path d="M27 96 Q27 76 45 76 Q63 76 63 96"/>
  <path d="M67 96 Q67 76 85 76 Q103 76 103 96"/>
  <path d="M107 96 Q107 76 125 76 Q143 76 143 96"/>
  <circle cx="45" cy="60" r="10"/>
  <circle cx="85" cy="60" r="10"/>
  <circle cx="125" cy="60" r="10"/>
</svg>
