<svg xmlns="http://www.w3.org/2000/svg" viewBox="0 0 170 129" fill="none" stroke="currentColor" stroke-width="4" stroke-linecap="round" stroke-linejoin="round">
  <path d="M24 96 Q24 78.5 40 78.5 Q56 78.5 56 96" fill="currentColor" fill-opacity="0.12" stroke="none"/>
  <path d="M54 96 Q54 78.5 70 78.5 Q86 78.5 86 96" fill="currentColor" fill-opacity="0.12" stroke="none"/>
  <path d="M84 96 Q84 78.5 100 78.5 Q116 78.5 116 96" fill="currentColor" fill-opacity="0.12" stroke="none"/>
  <path d="M114 96 Q114 78.5 130 78.5 Q146 78.5 146 96" fill="currentColor" fill-opacity="0.12" stroke="none"/>
  <path d="M24 96 Q24 78.5 40 78.5 Q56 78.5 56 96"/>
  <path d="M54 96 Q54 78.5 70 78.5 Q86 78.5 86 96"/>
  <path d="M84 96 Q84 78.5 100 78.5 Q116 78.5 116 96"/>
  <path d="M114 96 Q114 78.5 130 78.5 Q146 78.5 146 96"/>
  <circle cx="40" cy="64" r="9"/>
  <circle cx="70" cy="64" r="9"/>
  <circle cx="100" cy="64" r="9"/>
  <circle cx="130" cy="64" r="9"/>
</svg>
