<svg xmlns="http://www.w3.org/2000/svg" viewBox="0 0 170 129" fill="none" stroke="currentColor" stroke-width="4" stroke-linecap="round" stroke-linejoin="round">
  <path d="M44 54 V41 Q44 36 49 36 H121 Q126 36 126 41 V54 Z" fill="currentColor" fill-opacity="0.12" stroke="none"/>
  <rect x="44" y="36" width="82" height="70" rx="5"/>
  <path d="M44 54 H126"/>
  <path d="M62 28 V42"/>
  <path d="M108 28 V42"/>
  <rect x="56" y="62" width="8" height="8" rx="1.5" fill="currentColor" fill-opacity="0.15" stroke="none"/>
  <rect x="56" y="62" width="8" height="8" rx="1.5"/>
  <rect x="70" y="62" width="8" height="8" rx="1.5" fill="currentColor" fill-opacity="0.15" stroke="none"/>
  <rect x="70" y="62" width="8" height="8" rx="1.5"/>
  <rect x="84" y="62" width="8" height="8" rx="1.5" fill="currentColor" fill-opacity="0.15" stroke="none"/>
  <rect x="84" y="62" width="8" height="8" rx="1.5"/>
  <rect x="98" y="62" width="8" height="8" rx="1.5" fill="currentColor" fill-opacity="0.15" stroke="none"/>
  <rect x="98" y="62" width="8" height="8" rx="1.5"/>
  <rect x="56" y="76" width="8" height="8" rx="1.5" fill="currentColor" fill-opacity="0.15" stroke="none"/>
  <rect x="56" y="76" width="8" height="8" rx="1.5"/>
  <rect x="70" y="76" width="8" height="8" rx="1.5" fill="currentColor" fill-opacity="0.15" stroke="none"/>
  <rect x="70" y="76" width="8" height="8" rx="1.5"/>
  <rect x="84" y="76" width="8" height="8" rx="1.5" fill="currentColor" fill-opacity="0.15" stroke="none"/>
  <rect x="84" y="76" width="8" height="8" rx="1.5"/>
  <rect x="98" y="76" width="8" height="8" rx="1.5" fill="currentColor" fill-opacity="0.15" stroke="none"/>
  <rect x="98" y="76" width="8" height="8" rx="1.5"/>
  <path d="M112 90 V100"/>
  <path d="M107 95 H117"/>
</svg>
